<svg id="Capa_1" enable-background="new 0 0 512 512" height="512" viewBox="0 0 512 512" width="512" xmlns="http://www.w3.org/2000/svg"><g><path d="m459 95 34 19 4 84-32 25z" fill="#121416"/><path d="m50 95-31 26-5 94 36 12z" fill="#121416"/><path d="m467 0h-424l-31 512 488-14z" fill="#373e48"/><path d="m78 29h350l14 131-376 14z" fill="#121416"/><path d="m253 100 165-8 2 5-169 9z" fill="#f5db48"/><g fill="#e4883c"><path d="m131 63v71h10l2-72z"/><path d="m119 88v32h-5l-4-32z"/><path d="m153 78v45h6l2-45z"/><path d="m104 98v16h-6l1-16z"/><path d="m170 91-2 24h6v-24z"/><path d="m186 81v39h6l-1-38z"/><path d="m205 62-3 68 12-1-3-68z"/><path d="m223 77v43h5l1-43z"/><path d="m237 91-1 21h5v-21z"/></g><g><path d="m418 186h18l11 29-5 43h-21l-10-42z" fill="#121416"/><path d="m422 193h12l4 54-14 2z" fill="#e4883c"/><g fill="#121416"><path d="m420 200 18-3v7l-18 2z"/><path d="m420 210 21 1v4h-22z"/><path d="m420 222 22-2 1 5-24 3z"/><path d="m421 235 20-1v5l-20 2z"/></g></g><g><ellipse cx="376" cy="244" fill="#6d7784" rx="15" ry="13"/><path d="m372 243 8-1v-19l-11 1z" fill="#121416"/></g><g><ellipse cx="374" cy="198" fill="#6d7784" rx="15" ry="13"/><path d="m376 196-6 3-12-15 9-5z" fill="#121416"/></g><g><path d="m278 189v75h14l-4-75z" fill="#121416"/><g><path d="m267 204-2 11h33l-2-14z" fill="#6d7784"/><path d="m271 207v4h22v-6z" fill="#121416"/></g></g><g><path d="m325 189h10v75h-10z" fill="#121416"/><g><path d="m314 233-1 12h31l-1-14z" fill="#6d7784"/><path d="m318 237v4h22v-6z" fill="#121416"/></g></g><g><path d="m453 284-401 17-5 186 421-17z" fill="#121416"/><path d="m64 315-5 154 394-17-15-153z" fill="#fff"/><g fill="#121416"><path d="m73.387 306.926-.387 74.074 34-2v-77z"/><path d="m86 375-3.257 105h14.257l-3-105z"/><path d="m188 300-2 175h12l-2-175z"/><path d="m129 302v71h34v-76z"/><path d="m141 363v113h15l-6-113z"/><path d="m228 299-2 175h10v-175z"/><path d="m407 291 15 172h8l-13-172z"/><path d="m258 296v67h31l4-72z"/><path d="m270 360-1 108h15l-5-107z"/><path d="m315 291v68h26l4-68z"/><path d="m324 357-1 107h15l-6-107z"/><path d="m362 291 2 66h26l-3-66z"/><path d="m374 355 4 105h15l-10-105z"/></g></g><path d="m418 136h-42v13l44-3z" fill="#f5db48"/><path d="m362 138v11l-35 2v-11z" fill="#e4883c"/><g><g fill="#121416"><path d="m123 195-2 29 32-1-5-28z"/><path d="m171 193v28l30-1-4-27z"/><path d="m220 193-2 25h31l-3-27z"/><path d="m68 245-2 27h35l-4-28z"/><path d="m123 242-2 29 32-1-5-28z"/><path d="m220 240-2 25h31l-3-27z"/></g><g><path d="m68 198-2 27h35l-4-28z" fill="#121416"/><path d="m74 204v15h19l-1-16z" fill="#e4883c"/></g><g><path d="m171 240v28l30-1-4-27z" fill="#121416"/><path d="m177 245-1 18 19-1-2-17z" fill="#f5db48"/></g></g></g></svg>